<svg width="64" height="64" viewBox="0 0 64 64" fill="none" xmlns="http://www.w3.org/2000/svg">
<g clip-path="url(#clip0_24_1394)">
<path d="M13.6274 40.3595C13.6274 44.0245 10.6384 47.018 6.97294 47.018C3.30744 47.018 0.314941 44.0245 0.314941 40.3595C0.314941 36.6945 3.30844 33.701 6.97344 33.701H13.6279L13.6274 40.3595ZM16.9819 40.3595C16.9819 36.6945 19.9754 33.701 23.6404 33.701C27.3054 33.701 30.2989 36.694 30.2989 40.3595V57.027C30.2989 60.692 27.3059 63.6855 23.6404 63.6855C19.9754 63.6855 16.9819 60.692 16.9819 57.027V40.3595Z" fill="#DE1C59"/>
<path d="M23.6409 13.6275C19.9759 13.6275 16.9824 10.6385 16.9824 6.973C16.9824 3.3075 19.9759 0.315002 23.6409 0.315002C27.3059 0.315002 30.2994 3.3085 30.2994 6.9735V13.628L23.6409 13.6275ZM23.6409 16.982C27.3059 16.982 30.2994 19.9755 30.2994 23.6405C30.2994 27.3055 27.3064 30.299 23.6409 30.299H6.97343C3.30843 30.299 0.31543 27.306 0.31543 23.6405C0.31543 19.9755 3.30893 16.982 6.97393 16.982H23.6409Z" fill="#35C5F0"/>
<path d="M50.3727 23.6404C50.3727 19.9754 53.3617 16.9819 57.0272 16.9819C60.6927 16.9819 63.6857 19.9754 63.6857 23.6404C63.6857 27.3054 60.6922 30.2989 57.0272 30.2989H50.3727V23.6404ZM47.0182 23.6404C47.0182 27.3054 44.0247 30.2989 40.3597 30.2989C36.6947 30.2989 33.7012 27.3059 33.7012 23.6404V6.97294C33.7012 3.30794 36.6942 0.314941 40.3597 0.314941C44.0247 0.314941 47.0182 3.30844 47.0182 6.97344V23.6404Z" fill="#2EB57D"/>
<path d="M40.3597 50.3725C44.0247 50.3725 47.0182 53.3615 47.0182 57.027C47.0182 60.6925 44.0247 63.6855 40.3597 63.6855C36.6947 63.6855 33.7012 60.692 33.7012 57.027V50.3725H40.3597ZM40.3597 47.018C36.6947 47.018 33.7012 44.0245 33.7012 40.3595C33.7012 36.6945 36.6942 33.701 40.3597 33.701H57.0272C60.6922 33.701 63.6857 36.694 63.6857 40.3595C63.6857 44.0245 60.6922 47.018 57.0272 47.018H40.3597Z" fill="#EBB02E"/>
</g>
<defs>
<clipPath id="clip0_24_1394">
<rect width="64" height="64" fill="white"/>
</clipPath>
</defs>
</svg>
